<?xml version="1.0" encoding="UTF-8"?>
<svg id="Layer_1" data-name="Layer 1" xmlns="http://www.w3.org/2000/svg" version="1.1" viewBox="0 0 450 200">
  <defs>
    <style>
      .cls-1 {
        fill: #3bbb9f;
      }

      .cls-1, .cls-2, .cls-3, .cls-4, .cls-5, .cls-6, .cls-7, .cls-8, .cls-9, .cls-10, .cls-11, .cls-12, .cls-13, .cls-14, .cls-15, .cls-16, .cls-17, .cls-18, .cls-19, .cls-20, .cls-21, .cls-22, .cls-23 {
        stroke-width: 0px;
      }

      .cls-2 {
        fill: #f9fcfd;
      }

      .cls-3 {
        fill: #0dad88;
      }

      .cls-4 {
        fill: #5dc2ab;
      }

      .cls-5 {
        fill: #63c3a8;
      }

      .cls-6 {
        fill: #3fbc9f;
      }

      .cls-7 {
        fill: #0ab792;
      }

      .cls-8 {
        fill: #41bca0;
      }

      .cls-9 {
        fill: #1a242b;
      }

      .cls-10 {
        fill: #44bda1;
      }

      .cls-11 {
        fill: #1a2129;
      }

      .cls-12 {
        fill: #43bda0;
      }

      .cls-13 {
        fill: #49bea2;
      }

      .cls-14 {
        fill: #42bda1;
      }

      .cls-15 {
        fill: #51bfa4;
      }

      .cls-16 {
        fill: #6bc6b2;
      }

      .cls-17 {
        fill: #6cc7b7;
      }

      .cls-18 {
        fill: #32ba99;
      }

      .cls-19 {
        fill: #58c1a8;
      }

      .cls-20 {
        fill: #5ac2b0;
      }

      .cls-21 {
        fill: #f7fcfc;
      }

      .cls-22 {
        fill: #6bc7bc;
      }

      .cls-23 {
        fill: #66c5ae;
      }
    </style>
  </defs>
  <path class="cls-5" d="M77.37,39.5c19.63-15.96,41.72-21.96,68.08-17.07-38.93,22.06-65.83,49.58-55.88,98.91-12.62-9.09-22.86-18.67-29.31-31.81,0-3.28-.15-6.48-3.75-8.09,0,0-.11-.37-.11-.37-.35-.87-.7-1.75-1.04-2.62,0,0-.06-.14-.06-.14.19-3.93-1.04-8.83.86-11.59,5.34-7.78,12-14.65,18.04-21.96,1.29-1.56,2.13-3.5,3.18-5.26Z"/>
  <path class="cls-14" d="M395.26,124.4c-7.74,1.64-8.12,1.41-9.76-5.31-.67-2.75-1.39-5.49-2.01-8.25-2.22-9.85-5.88-12.15-18.16-10.95v24.91h-7.91c0-4.28,0-8.39,0-12.5,0-13.67.12-27.34-.09-41.01-.05-3.54.82-5.39,4.53-5.34,5.97.08,11.99-.32,17.9.31,6.91.73,11.78,4.72,13.21,11.76,1.48,7.27-1.14,13.09-7.36,17.21-.68.45-1.37.88-2.43,1.56,9.8,6.89,7.71,18.5,12.06,27.61ZM365.46,93.46c7.23.03,14.52,1.68,18.81-5.69,2.24-3.86,2.21-8.25-.63-11.79-4.8-5.96-11.46-4.68-18.17-4.22v21.7Z"/>
  <path class="cls-8" d="M400.37,124.71c5.35-8.94,10.26-17.41,15.47-25.7,1.82-2.9,1.98-5.09.1-8.11-5.09-8.14-9.76-16.53-14.67-24.93,5.91-1.7,9.5-.25,11.95,5.2,2.7,6.01,6.3,11.62,9.79,17.92,3.58-6.24,7.27-11.79,10.06-17.78,2.48-5.33,6.05-6.95,12.05-5.39-4.64,7.54-8.79,15.26-13.93,22.28-3.53,4.83-2.78,8.36.18,12.87,4.93,7.5,9.32,15.36,13.96,23.1-6.7,2.22-7.86,1.77-11.22-4.02-3.59-6.2-7.22-12.37-10.84-18.55-.08-.14-.23-.24-.81-.86-3.53,6.36-6.95,12.53-10.38,18.71q-3.41,6.14-11.72,5.28Z"/>
  <path class="cls-7" d="M22.28,56.28c2.34-3.35,4.69-6.7,7.03-10.06.2.15.4.29.6.44-.11-.24-.22-.48-.33-.72,0,0,.11-.16.11-.16,1.49-.35,2.98-.7,4.95-1.17.59,3.9,1.48,7.44,1.6,11,.48,14.62.84,29.26,1.03,43.89.16,12.17.24,24.35-.12,36.51-.09,3.01-2.03,5.96-3.12,8.94-3.33-4-6.67-8-10-12,2.86-2.02,3.41-4.79,3.33-8.19-.47-20.36-.85-40.73-.96-61.1-.02-3.61-.88-5.96-4.14-7.37Z"/>
  <path class="cls-3" d="M22.28,56.28c3.26,1.41,4.12,3.76,4.14,7.37.1,20.37.49,40.74.96,61.1.08,3.4-.47,6.17-3.33,8.19-.26.09-.53.16-.8.21-13.35-24.2-15.17-48.88-3.01-74.12.49-1.01,1.35-1.84,2.05-2.76Z"/>
  <path class="cls-8" d="M277.31,103.89c.09-13.66,8.48-22.63,21.14-22.62,12.46.02,20.67,9,20.57,22.52-.1,13.29-9.04,22.65-21.49,22.5-12.12-.14-20.31-9.22-20.22-22.41ZM283.79,103c1.74,4.66,2.58,8.84,4.7,12.2,4.16,6.6,13.3,6.9,18.44,1.12,5.59-6.3,5.89-17.99.62-24.56-4.46-5.57-13.02-6.59-17.44-1.27-2.9,3.49-4.25,8.26-6.32,12.51Z"/>
  <path class="cls-10" d="M231.39,82.64h7.44v42.13h-5.93c-.25-1.5-.52-3.08-.77-4.54-3.29,1.81-6.47,4.23-10.06,5.39-8.08,2.62-16.33-1.73-17.43-10.11-1.39-10.65-1.19-21.52-1.69-32.69h8.21c0,6.17-.02,12.44,0,18.71.01,2.83-.09,5.69.25,8.48.81,6.61,4,9.83,9.26,9.71,5.89-.14,10.54-4.78,10.65-11.04.15-8.48.04-16.97.04-26.03Z"/>
  <path class="cls-18" d="M34.04,144.95c1.09-2.98,3.03-5.93,3.12-8.94.36-12.16.28-24.34.12-36.51-.19-14.63-.55-29.26-1.03-43.89-.12-3.56-1.01-7.1-1.6-11-1.97.47-3.46.82-4.95,1.17,1.21-1.5,2.43-2.99,3.64-4.48,3.37.14,4.99-1.5,4.95-4.85,0,0,.13-.12.13-.12,3.02-.05,2.67,1.59,2.55,3.95-.32,6.1-.48,12.26.03,18.34.87,10.34,3.92,20.33,3.51,30.97-.68,17.64-.31,35.34-.09,53.01.05,4.06-.35,6.92-5.16,6.98-1.74-1.54-3.47-3.09-5.21-4.63Z"/>
  <path class="cls-12" d="M200.64,65.76v6.14h-17.43v52.76h-7.9v-52.53h-17.77v-6.37h43.1Z"/>
  <path class="cls-11" d="M41.39,170.61c-12.68,4.24-24.91,8.34-37.44,12.53,7.48-11.32,12.16-23.73,13.39-38.42,8.54,9.19,16.29,17.54,24.05,25.89Z"/>
  <path class="cls-1" d="M39.25,149.58c4.81-.06,5.21-2.92,5.16-6.98-.22-17.67-.59-35.36.09-53.01.41-10.64-2.64-20.63-3.51-30.97-.51-6.07-.34-12.24-.03-18.34.12-2.35.47-4-2.55-3.95,1.69-1.53,3.37-3.06,5.54-5.02.27,1.21.6,1.81.49,2.32-4.09,19.23-.42,37.37,7.55,54.93.41.89.66,1.86.99,2.79-.89,2.38-2.52,4.75-2.56,7.14-.23,15.89-.25,31.79-.03,47.68.06,4.09-.31,7.12-5.15,7.48-2-1.36-4-2.72-6-4.09Z"/>
  <path class="cls-6" d="M252.94,88.74c-2.24-.25-3.86-.43-6.1-.68-.07-1.62-.15-3.31-.24-5.32,2.19-.2,3.95-.36,6.06-.55.87-4.83-2.11-12.36,7.86-11.07v11.27h10.69c.12,1.98.21,3.56.34,5.69-3.65.18-7.03.34-10.85.53,0,8.71-.27,17.16.09,25.58.26,6.14,5.32,5.67,9.56,5.62,1.99,4.69,0,6.24-4.26,6.49-7.91.47-12.29-3.02-12.8-11.11-.43-6.97-.26-13.97-.34-20.96-.02-1.77,0-3.54,0-5.49Z"/>
  <path class="cls-12" d="M335.07,124.83h-7.62v-41.97h6.03c.27,1.68.54,3.41.85,5.31,7.8-7.11,8.12-7.25,13.8-6.28v6.2c-9.73,1.54-12.96,5.29-13.04,15.09-.06,7.12-.01,14.24-.01,21.65Z"/>
  <path class="cls-13" d="M45.25,153.67c4.84-.36,5.21-3.39,5.15-7.48-.22-15.89-.2-31.79.03-47.68.03-2.39,1.67-4.76,2.56-7.14.26.09.35.26.26.52.25.5.51,1,.76,1.5.24.1.32.28.22.52.29.5.58,1,.88,1.5,0,0,.14.34.14.34.33.55.66,1.11.98,1.66.32.69.65,1.39.97,2.08.12.6.25,1.2.37,1.8,0,0-.03-.06-.03-.06.67,1.03,1.34,2.06,2.01,3.09.3.31.6.61.9.92-.05.4-.09.79-.13,1.19-3.22-.16-3.84,2.04-3.96,4.53-.38,7.75-.95,15.51-.95,23.26,0,7.75.59,15.51.93,23.26-.38.48-.76.97-1.15,1.45-3.31-1.75-6.61-3.5-9.92-5.26Z"/>
  <path class="cls-23" d="M68.59,115.36c4.6,4.76,9.19,9.52,13.78,14.27,1.65,2.27,3.3,4.55,4.95,6.82-.67,2.47-1.9,4.93-1.89,7.4,0,6.54.55,13.08.88,19.63-3.66.62-7.33,1.23-10.99,1.85-1.27,0-2.54.02-3.81.03-1.1-.55-2.2-1.11-3.3-1.66.37-.41.73-.81,1.1-1.22,7.86.02,8.49-.81,7.97-6.78-.67-7.59-1.68-15.39-.61-22.82.84-5.85-1.38-8.64-5.34-11.42-.91-2.03-1.82-4.06-2.73-6.08Z"/>
  <path class="cls-9" d="M68.21,163.69c1.1.55,2.2,1.11,3.3,1.66-5.99,1.08-11.96,2.22-17.97,3.19-1,.16-2.48-.03-3.13-.67-6.68-6.65-13.66-13.06-19.65-20.29-3.38-4.08-5.06-9.56-7.51-14.41.27-.06.54-.13.8-.22,3.33,4,6.67,8,10,12,1.73,1.55,3.47,3.09,5.21,4.63,2,1.36,4,2.72,6,4.09,3.31,1.75,6.61,3.5,9.92,5.25,0,0,.3.15.3.15l.33-.07v.05c4.13,1.55,8.27,3.1,12.41,4.65Z"/>
  <path class="cls-19" d="M68.21,163.69c-4.14-1.55-8.28-3.1-12.42-4.65q7.53-1.11,7.53-9.25c0-9.16-.85-18.43.3-27.45.79-6.13.63-11.19-3.31-15.93.04-.4.09-.79.13-1.19,2.72,3.38,5.43,6.75,8.15,10.13.91,2.03,1.82,4.06,2.73,6.08-.57,8.81-1.21,17.61-1.68,26.43-.26,4.86-.23,9.73-.33,14.6-.37.41-.73.81-1.1,1.22Z"/>
  <path class="cls-17" d="M75.32,165.32c3.66-.62,7.33-1.23,10.99-1.85,1.81,0,3.86.53,5.35-.15,1.5-.69,3.71-3.04,3.42-3.89-2.31-6.62-1.47-13.23-.75-19.88,2.68,1.43,5.37,2.87,8.05,4.3,1.07,5.58-.8,12.19,6.37,15.42-2.28,1.71-3.83,2.88-5.38,4.04-9.35.67-18.7,1.34-28.04,2.01Z"/>
  <path class="cls-16" d="M94.33,139.56c-.71,6.65-1.55,13.26.75,19.88.3.85-1.92,3.2-3.42,3.89-1.49.68-3.54.15-5.35.15-.33-6.54-.87-13.08-.88-19.63,0-2.46,1.23-4.93,1.89-7.4,1.74.64,3.48,1.27,5.23,1.9.59.4,1.18.8,1.77,1.2Z"/>
  <path class="cls-22" d="M103.36,163.32c1.55-1.17,3.1-2.33,5.38-4.04-7.16-3.23-5.29-9.84-6.37-15.42,7.45,3.57,14.9,7.14,22.35,10.71.13.5.26.99.39,1.49-7.25,2.42-14.5,4.85-21.75,7.27Z"/>
  <path class="cls-20" d="M77.37,39.5c-1.05,1.76-1.89,3.7-3.18,5.26-6.03,7.31-12.7,14.18-18.04,21.96-1.89,2.76-.66,7.67-.86,11.59-3.14-5.34-3.08-10.21.69-15.56,6.15-8.71,12.53-17.09,21.38-23.26Z"/>
  <path class="cls-17" d="M92.55,138.36c-1.74-.63-3.48-1.27-5.23-1.9-1.65-2.27-3.3-4.55-4.95-6.82,3.39,2.91,6.78,5.82,10.18,8.72Z"/>
  <path class="cls-20" d="M56.51,81.44c3.6,1.6,3.76,4.81,3.75,8.09-1.25-2.7-2.5-5.39-3.75-8.09Z"/>
  <path class="cls-1" d="M38.29,36.46c.04,3.34-1.59,4.99-4.95,4.85,1.65-1.62,3.3-3.23,4.95-4.85Z"/>
  <path class="cls-19" d="M59.55,104.31c-.67-1.03-1.34-2.06-2.01-3.09.67,1.03,1.34,2.06,2.01,3.09Z"/>
  <path class="cls-20" d="M55.35,78.46c.35.87.7,1.75,1.04,2.62-.35-.87-.7-1.75-1.04-2.62Z"/>
  <path class="cls-1" d="M54.01,93.38c-.25-.5-.51-1-.76-1.5.25.5.51,1,.76,1.5Z"/>
  <path class="cls-1" d="M55.1,95.4c-.29-.5-.58-1-.88-1.5.29.5.58,1,.88,1.5Z"/>
  <path class="cls-1" d="M56.23,97.4c-.33-.55-.66-1.11-.98-1.66.33.56.66,1.11.98,1.66Z"/>
  <path class="cls-15" d="M57.57,101.28c-.12-.6-.25-1.2-.37-1.8.12.6.25,1.2.37,1.8Z"/>
  <path class="cls-18" d="M29.58,45.95c.11.24.22.48.33.72-.2-.15-.4-.29-.6-.44,0,0,.27-.28.27-.28Z"/>
  <path class="cls-2" d="M365.46,93.46v-21.7c6.72-.46,13.38-1.74,18.17,4.22,2.85,3.54,2.88,7.93.63,11.79-4.29,7.37-11.58,5.72-18.81,5.69Z"/>
  <path class="cls-21" d="M283.79,103c2.07-4.25,3.42-9.02,6.32-12.51,4.42-5.33,12.98-4.3,17.44,1.27,5.27,6.57,4.97,18.26-.62,24.56-5.14,5.79-14.28,5.48-18.44-1.12-2.12-3.37-2.97-7.55-4.7-12.2Z"/>
  <path class="cls-15" d="M60.31,106.42c3.94,4.74,4.1,9.8,3.31,15.93-1.16,9.01-.3,18.28-.3,27.45q0,8.14-7.53,9.25s0-.05.01-.06c.17-.51.34-1.02.51-1.52-.33-7.75-.93-15.51-.93-23.26,0-7.75.57-15.51.95-23.26.12-2.48.74-4.69,3.96-4.53Z"/>
  <path class="cls-19" d="M56.32,157.47c-.17.51-.34,1.01-.51,1.52,0,0-.33.07-.33.07,0,0-.3-.15-.3-.15.38-.48.76-.96,1.14-1.45Z"/>
  <path class="cls-4" d="M69.31,162.47c.1-4.87.07-9.74.33-14.6.47-8.81,1.11-17.62,1.68-26.43,3.96,2.78,6.18,5.57,5.34,11.42-1.06,7.43-.06,15.23.61,22.82.53,5.97-.11,6.81-7.97,6.78Z"/>
</svg>